<?xml version="1.0" encoding="UTF-8" standalone="no"?>
<svg
   width="16"
   height="16"
   fill="white"
   class="bi bi-basket2-fill"
   viewBox="0 0 16 16"
   version="1.1"
   id="svg1113"
   sodipodi:docname="basket2-fill.svg"
   inkscape:version="1.2.1 (9c6d41e4, 2022-07-14)"
   xmlns:inkscape="http://www.inkscape.org/namespaces/inkscape"
   xmlns:sodipodi="http://sodipodi.sourceforge.net/DTD/sodipodi-0.dtd"
   xmlns="http://www.w3.org/2000/svg"
   xmlns:svg="http://www.w3.org/2000/svg">
  <defs
     id="defs1117" />
  <sodipodi:namedview
     id="namedview1115"
     pagecolor="#ffffff"
     bordercolor="#cccccc"
     borderopacity="1"
     inkscape:showpageshadow="0"
     inkscape:pageopacity="1"
     inkscape:pagecheckerboard="0"
     inkscape:deskcolor="#d1d1d1"
     showgrid="false"
     inkscape:zoom="14.75"
     inkscape:cx="2.2372881"
     inkscape:cy="8"
     inkscape:window-width="1440"
     inkscape:window-height="456"
     inkscape:window-x="0"
     inkscape:window-y="30"
     inkscape:window-maximized="0"
     inkscape:current-layer="svg1113" />
  <path
     d="M5.929 1.757a.5.5 0 1 0-.858-.514L2.217 6H.5a.5.5 0 0 0-.5.5v1a.5.5 0 0 0 .5.5h.623l1.844 6.456A.75.75 0 0 0 3.69 15h8.622a.75.75 0 0 0 .722-.544L14.877 8h.623a.5.5 0 0 0 .5-.5v-1a.5.5 0 0 0-.5-.5h-1.717L10.93 1.243a.5.5 0 1 0-.858.514L12.617 6H3.383L5.93 1.757zM4 10a1 1 0 0 1 2 0v2a1 1 0 1 1-2 0v-2zm3 0a1 1 0 0 1 2 0v2a1 1 0 1 1-2 0v-2zm4-1a1 1 0 0 1 1 1v2a1 1 0 1 1-2 0v-2a1 1 0 0 1 1-1z"
     id="path1111" />
</svg>
